<svg xmlns="http://www.w3.org/2000/svg" width="55" height="35"><defs><style>.b{fill:#010101}</style></defs><rect width="55" height="35" rx="2" fill="#fff"/><path class="b" d="M6.808 5.986h.471v12.506h-.471zM7.75 5.986h.471v12.506H7.75zM10.578 5.986h.471v12.506h-.471zM19.746 5.986h.471v12.506h-.471zM22.811 5.986h.471v12.506h-.471zM25.783 5.986h.471v12.506h-.471zM26.549 5.986h.471v12.506h-.471zM27.316 5.986h.471v12.506h-.471zM28.178 5.986h.471v12.506h-.471zM29.04 5.986h.471v12.506h-.471zM31.436 5.986h.471v12.506h-.471zM37.377 5.986h.471v12.506h-.471zM43.574 5.986h.471v12.506h-.471zM45.269 5.986h.471v12.506h-.471zM46.494 5.986h.471v12.506h-.471zM47.248 5.986h.471v12.506h-.471zM13.688 5.986h.471v12.506h-.471zM8.975 5.986h.848v12.506h-.848zM14.572 5.986h.848v12.506h-.848zM18.502 5.986h.848v12.506h-.848zM20.514 5.986h.848v12.506h-.848zM23.676 5.986h.848v12.506h-.848zM32.691 5.986h1.319v12.506h-1.319zM34.414 5.986h1.037v12.506h-1.037zM36.232 5.986h.848v12.506h-.848zM38.636 5.986h1.414v12.506h-1.414zM41.405 5.986h1.414v12.506h-1.414zM11.52 5.986h1.696v12.506H11.52zM15.916 5.986h1.319v12.506h-1.319z"/><path d="M7.418 29.596v-7.158h2.686a3.324 3.324 0 0 1 1.316.217 1.692 1.692 0 0 1 .776.669 1.763 1.763 0 0 1 .281.945 1.623 1.623 0 0 1-.249.864 1.778 1.778 0 0 1-.752.654 1.87 1.87 0 0 1 1 .649 1.739 1.739 0 0 1 .349 1.084 2.091 2.091 0 0 1-.212.935 1.81 1.81 0 0 1-.527.667 2.191 2.191 0 0 1-.784.354 4.766 4.766 0 0 1-1.154.12zm.948-4.15h1.548a3.454 3.454 0 0 0 .9-.083 1 1 0 0 0 .544-.356 1.027 1.027 0 0 0 .183-.625 1.151 1.151 0 0 0-.171-.627.865.865 0 0 0-.484-.372 4.078 4.078 0 0 0-1.089-.1H8.366zm0 3.306h1.782a4.1 4.1 0 0 0 .645-.034 1.544 1.544 0 0 0 .547-.2 1.037 1.037 0 0 0 .361-.4 1.246 1.246 0 0 0 .142-.6 1.189 1.189 0 0 0-.205-.7 1.082 1.082 0 0 0-.569-.415 3.527 3.527 0 0 0-1.047-.12H8.366zm5.843-2.642a3.89 3.89 0 0 1 .957-2.791 3.254 3.254 0 0 1 2.471-1.008 3.428 3.428 0 0 1 1.787.474 3.093 3.093 0 0 1 1.213 1.321 4.29 4.29 0 0 1 .417 1.921 4.218 4.218 0 0 1-.439 1.948 3 3 0 0 1-1.245 1.3 3.557 3.557 0 0 1-1.738.442 3.385 3.385 0 0 1-1.806-.487 3.142 3.142 0 0 1-1.207-1.334 4.04 4.04 0 0 1-.41-1.786zm.977.015a2.868 2.868 0 0 0 .7 2.039 2.289 2.289 0 0 0 1.746.745 2.285 2.285 0 0 0 1.754-.753 3.04 3.04 0 0 0 .691-2.134 3.667 3.667 0 0 0-.291-1.526 2.27 2.27 0 0 0-.864-1.011 2.343 2.343 0 0 0-1.277-.359 2.422 2.422 0 0 0-1.731.691 3.086 3.086 0 0 0-.728 2.307zm7.421 3.471v-7.158h.947v6.313h3.525v.845zm5.99 0v-7.158h5.176v.845h-4.229v2.192h3.96v.84h-3.96v2.436h4.395v.845zm8.842 0v-6.313H35.08v-.845h5.674v.845h-2.368v6.313zm4.188-3.486a3.89 3.89 0 0 1 .959-2.791 3.254 3.254 0 0 1 2.471-1.008 3.428 3.428 0 0 1 1.787.474 3.093 3.093 0 0 1 1.213 1.321 4.29 4.29 0 0 1 .417 1.921 4.218 4.218 0 0 1-.439 1.948 3 3 0 0 1-1.249 1.301 3.557 3.557 0 0 1-1.738.442 3.385 3.385 0 0 1-1.807-.488 3.142 3.142 0 0 1-1.204-1.334 4.04 4.04 0 0 1-.41-1.786zm.977.015a2.868 2.868 0 0 0 .7 2.039 2.289 2.289 0 0 0 1.746.745 2.285 2.285 0 0 0 1.76-.752 3.04 3.04 0 0 0 .691-2.134 3.667 3.667 0 0 0-.3-1.526 2.27 2.27 0 0 0-.864-1.011 2.343 2.343 0 0 0-1.277-.359 2.422 2.422 0 0 0-1.731.691 3.086 3.086 0 0 0-.726 2.306z"/></svg>